<svg
    xmlns="http://www.w3.org/2000/svg"
    xmlns:xlink="http://www.w3.org/1999/xlink"
    fill="none"
    version="1.1"
    width="22"
    height="22"
    viewBox="0 0 22 22"
>
    <defs>
        <clipPath id="master_svg0_14_5334">
            <rect x="0" y="0" width="22" height="22" rx="0" />
        </clipPath>
    </defs>
    <g clip-path="url(#master_svg0_14_5334)">
        <g>
            <path
                d="M10.995703245315552,9.922126804580689C15.76524324531555,9.922126804580689,19.637343245315552,8.716426804580689,19.637343245315552,7.220466804580688C19.637343245315552,7.220466804580688,19.637343245315552,5.064296804580689,19.637343245315552,5.064296804580689C19.637343245315552,3.5683368045806887,15.765443245315552,2.3626368045806885,10.995703245315552,2.3626368045806885C6.226173245315552,2.3626368045806885,2.3540432453155518,3.5681268045806886,2.3540432453155518,5.064296804580689C2.3540432453155518,5.064296804580689,2.3540432453155518,7.220256804580688,2.3540432453155518,7.220256804580688C2.3540432453155518,8.707616804580688,6.217153245315552,9.922126804580689,10.995703245315552,9.922126804580689C10.995703245315552,9.922126804580689,10.995703245315552,9.922126804580689,10.995703245315552,9.922126804580689Z"
                fill="#D0D5DE"
                fill-opacity="1"
            />
        </g>
        <g>
            <path
                d="M10.995703245315552,14.779531898498536C15.76524324531555,14.779531898498536,19.637343245315552,13.574041898498535,19.637343245315552,12.077871898498536C19.637343245315552,12.077871898498536,19.637343245315552,8.839531898498535,19.637343245315552,8.839531898498535C19.637343245315552,10.335491898498535,15.765443245315552,11.541191898498536,10.995703245315552,11.541191898498536C6.226173245315552,11.541191898498536,2.3540432453155518,10.335701898498534,2.3540432453155518,8.839531898498535C2.3540432453155518,8.839531898498535,2.3540432453155518,12.077871898498536,2.3540432453155518,12.077871898498536C2.3540432453155518,13.565231898498535,6.217153245315552,14.779531898498536,10.995703245315552,14.779531898498536C10.995703245315552,14.779531898498536,10.995703245315552,14.779531898498536,10.995703245315552,14.779531898498536Z"
                fill="#D0D5DE"
                fill-opacity="1"
            />
        </g>
        <g>
            <path
                d="M10.995701619720458,16.398807369384766C6.226171619720459,16.398807369384766,2.362851619720459,15.193107369384766,2.362851619720459,13.697147369384766C2.362851619720459,13.697147369384766,2.362851619720459,16.935487369384767,2.362851619720459,16.935487369384767C2.362851619720459,18.422637369384766,6.225961619720459,19.637147369384767,11.004511619720459,19.637147369384767C15.774051619720458,19.637147369384767,19.64615161972046,18.431657369384766,19.64615161972046,16.935487369384767C19.64615161972046,16.935487369384767,19.64615161972046,13.697362423384766,19.64615161972046,13.697362423384766C19.63715161972046,15.193107369384766,15.765251619720459,16.398807369384766,10.995701619720458,16.398807369384766C10.995701619720458,16.398807369384766,10.995701619720458,16.398807369384766,10.995701619720458,16.398807369384766Z"
                fill="#D0D5DE"
                fill-opacity="1"
            />
        </g>
    </g>
</svg>